<svg width="1952" height="2521" viewBox="0 0 1952 2521" fill="none" xmlns="http://www.w3.org/2000/svg">
<path d="M1361.5 346.656C1521 38.1559 1825.5 -20.8445 1952 5.65556V2515.16L0.5 2520.01V697.857C621.747 1054.74 1153.44 749.076 1361.5 346.656Z" fill="url(#paint0_linear_326_45)"/>
<path d="M1361.5 346.656C1521 38.1559 1825.5 -20.8445 1952 5.65556V2515.16L0.5 2520.01V697.857C621.747 1054.74 1153.44 749.076 1361.5 346.656Z" fill="url(#paint1_radial_326_45)"/>
<path d="M1361.5 346.656C1521 38.1559 1825.5 -20.8445 1952 5.65556V2515.16L0.5 2520.01V697.857C621.747 1054.74 1153.44 749.076 1361.5 346.656Z" fill="url(#paint2_linear_326_45)"/>
<defs>
<linearGradient id="paint0_linear_326_45" x1="187.5" y1="618.156" x2="1822.5" y2="633.656" gradientUnits="userSpaceOnUse">
<stop stop-color="white"/>
<stop offset="0.404812" stop-color="#9ED0FF" stop-opacity="0.5"/>
<stop offset="1" stop-color="white"/>
</linearGradient>
<radialGradient id="paint1_radial_326_45" cx="0" cy="0" r="1" gradientUnits="userSpaceOnUse" gradientTransform="translate(1119.5 1108.66) rotate(-14.3336) scale(1191.59 341.293)">
<stop stop-color="white"/>
<stop offset="1" stop-color="white" stop-opacity="0"/>
</radialGradient>
<linearGradient id="paint2_linear_326_45" x1="910.5" y1="1061.16" x2="979.75" y2="2520.16" gradientUnits="userSpaceOnUse">
<stop stop-color="white" stop-opacity="0"/>
<stop offset="0.317308" stop-color="white"/>
</linearGradient>
</defs>
</svg>
