<svg width="481" height="173" viewBox="0 0 481 173" fill="none" xmlns="http://www.w3.org/2000/svg">
<path d="M64.0371 2.72765C66.1509 0.614026 68.8184 0.345063 71.3076 1.07238C73.7129 1.77535 76.0669 3.41716 78.0684 5.34386C81.8237 8.9593 84.1323 12.9073 84.7695 18.8771L84.8232 19.423C85.3223 25.1076 84.165 32.0197 81.501 40.0861L81.502 40.087L62.0859 99.7716C63.7258 98.918 65.3983 98.0632 67.1045 97.2101C70.2631 95.5942 73.4947 93.9788 76.7988 92.3634L76.8135 92.3556L76.8281 92.3487C78.2532 91.6837 79.7841 91.4872 81.252 92.0987C82.6087 92.6641 83.598 93.8239 84.3359 95.2062L84.4795 95.4855L84.4893 95.504L84.498 95.5236C85.1746 96.9613 85.5284 98.4355 85.3086 99.8644L85.3076 99.8751L85.3057 99.8859C85.0378 101.492 83.9537 102.601 82.5752 103.29L82.5654 103.295C77.5152 105.784 72.7579 108.161 68.2949 110.429L68.2959 110.43C64.1427 112.576 60.2193 114.624 56.5254 116.572L47.7324 143.705C45.7171 149.974 43.2689 155.267 40.3662 159.548L40.3672 159.549C37.4731 163.89 34.1436 167.211 30.3545 169.431L30.3555 169.432C26.6102 171.743 22.429 172.89 17.8594 172.89C14.4489 172.89 11.3579 172.174 8.6377 170.691V170.69C5.94954 169.297 3.80681 167.319 2.24512 164.771L2.23438 164.752L2.22363 164.734C0.726429 162.156 0.000103897 159.234 0 156.021C0 152.081 0.868147 148.232 2.58301 144.49C4.30191 140.74 7.00283 136.983 10.6211 133.214L10.6279 133.207L10.6338 133.2C14.3208 129.438 19.0643 125.485 24.8398 121.338L24.8506 121.33L24.8613 121.323C30.5716 117.348 37.4596 113.105 45.5156 108.594L68.9482 36.6622L68.9561 36.6388C70.9928 30.674 71.83 27.8748 71.8301 22.59C71.83 18.0253 69.566 17.2764 68.8965 17.2403C68.7537 17.3535 68.555 17.5248 68.291 17.7677C67.7132 18.2993 66.9464 19.0546 65.9697 20.0138C64.0354 21.9135 61.3777 24.5156 58.1318 27.3546C51.6534 33.0209 42.7475 39.7046 32.3486 43.7277C31.8853 43.9069 31.2514 44.1266 30.5645 44.1993C29.8533 44.2746 28.9762 44.2022 28.1475 43.6769C26.6514 42.7284 25.5749 40.9218 25.0273 39.2921C24.7418 38.4421 24.5584 37.5221 24.5596 36.6349C24.5607 35.8069 24.7256 34.845 25.293 34.0275C25.4453 33.7793 25.6225 33.597 25.7441 33.4825C25.908 33.3283 26.0862 33.1922 26.252 33.0753C26.5827 32.8421 26.9896 32.6001 27.4238 32.3575C28.2911 31.8731 29.4768 31.2707 30.792 30.587C33.4655 29.1972 36.884 27.3641 40.2881 25.0187C47.1096 20.3186 53.9262 12.8383 64.0371 2.72765ZM9.5 169.11C9.65117 169.193 9.80397 169.272 9.95801 169.35L9.5 169.109C9.40154 169.059 9.30477 169.006 9.20801 168.953C9.30486 169.006 9.40144 169.06 9.5 169.11ZM29.4102 167.9C29.1947 168.032 28.9774 168.162 28.7588 168.286L29.4102 167.9C29.6302 167.772 29.8483 167.639 30.0654 167.502C29.8484 167.639 29.6301 167.771 29.4102 167.9ZM32.5244 165.726C32.5954 165.667 32.6657 165.608 32.7363 165.549C32.6657 165.608 32.5954 165.667 32.5244 165.726ZM33.0986 165.241C33.1648 165.184 33.231 165.126 33.2969 165.067C33.231 165.126 33.1648 165.184 33.0986 165.241ZM33.8193 164.594C33.776 164.634 33.731 164.673 33.6875 164.713C33.731 164.673 33.776 164.634 33.8193 164.594ZM42.9395 122.141C35.4597 126.614 29.41 130.757 24.79 134.57C20.2434 138.384 16.943 141.977 14.8896 145.351C12.8364 148.797 11.8096 152.134 11.8096 155.36C11.8096 157.56 12.4701 159.247 13.79 160.42C15.1833 161.593 16.7966 162.181 18.6299 162.181C21.1231 162.181 23.47 161.337 25.6699 159.65C27.8699 158.037 29.9225 155.653 31.8291 152.5C33.7358 149.347 35.423 145.387 36.8896 140.62L42.9395 122.141ZM55.04 115.319L46.0195 143.15V143.15L55.04 115.32C56.0116 114.807 56.9993 114.287 58.0029 113.76C56.9994 114.287 56.0115 114.806 55.04 115.319ZM28.1201 121.274C27.7386 121.53 27.362 121.786 26.9902 122.04L28.1211 121.274C28.5026 121.017 28.889 120.759 29.2803 120.5L28.1201 121.274ZM63.9307 100.841C63.814 100.901 63.6974 100.961 63.5811 101.022C64.2551 100.673 64.9348 100.324 65.6201 99.9747L63.9307 100.841ZM31.6992 42.048C31.4902 42.1288 31.2739 42.2055 31.0557 42.2687C31.1627 42.2377 31.2696 42.2046 31.375 42.1681L31.6992 42.0489C31.8525 41.9897 32.0046 41.9278 32.1572 41.8673C32.0047 41.9277 31.8524 41.9887 31.6992 42.048ZM29.2393 42.2296C29.2415 42.2307 29.2439 42.2314 29.2461 42.2325C29.2007 42.2094 29.1555 42.1844 29.1113 42.1564L29.2393 42.2296ZM32.4482 41.7511C32.6367 41.6753 32.8243 41.5981 33.0117 41.5206C32.8243 41.5981 32.6366 41.6753 32.4482 41.7511ZM33.2178 41.4357C33.3385 41.3852 33.4598 41.3364 33.5801 41.2853C33.6429 41.2586 33.7049 41.2302 33.7676 41.2032C33.5849 41.2816 33.4015 41.3589 33.2178 41.4357ZM34.7246 40.7823C34.538 40.866 34.3507 40.9484 34.1631 41.0304C34.2775 40.9803 34.3928 40.9326 34.5068 40.882C34.5798 40.8495 34.6518 40.815 34.7246 40.7823ZM36.0273 40.1808C36.13 40.1321 36.2336 40.0854 36.3359 40.0362C36.3938 40.0084 36.451 39.9793 36.5088 39.9513C36.3489 40.0287 36.1881 40.1045 36.0273 40.1808ZM40.7471 37.7208H40.748H40.7471ZM44.1006 35.7062C44.476 35.4683 44.8471 35.227 45.2158 34.9855C44.8472 35.227 44.476 35.4683 44.1006 35.7062ZM45.375 34.882C45.7351 34.6449 46.0918 34.4061 46.4453 34.1661C46.0918 34.4061 45.7351 34.6449 45.375 34.882ZM46.5781 34.0753C46.8185 33.9115 47.0567 33.7461 47.2939 33.5812C47.0567 33.7461 46.8185 33.9115 46.5781 34.0753ZM47.9678 33.1075C48.1512 32.9777 48.3342 32.8482 48.5156 32.7179C48.3341 32.8482 48.1512 32.9777 47.9678 33.1075ZM30.9941 32.5089C31.4897 32.2524 32.0175 31.9763 32.5732 31.6837C32.0175 31.9763 31.4897 32.2524 30.9941 32.5089ZM33.0996 31.4054C33.1868 31.3591 33.2749 31.3129 33.3633 31.2657C33.2749 31.3129 33.1868 31.3591 33.0996 31.4054ZM34.2539 30.7843C34.3741 30.7188 34.4953 30.653 34.6172 30.5861C34.4953 30.653 34.3741 30.7188 34.2539 30.7843ZM35.4033 30.1486C35.5531 30.0645 35.7047 29.9808 35.8564 29.8946C35.7047 29.9808 35.5531 30.0645 35.4033 30.1486ZM37.1475 29.1466C37.4658 28.9586 37.7869 28.7657 38.1104 28.5685C37.7869 28.7657 37.4658 28.9586 37.1475 29.1466ZM38.2451 28.4864C38.5967 28.2711 38.951 28.0507 39.3066 27.8243C38.951 28.0507 38.5967 28.2711 38.2451 28.4864ZM39.585 27.6446C39.7086 27.5652 39.8331 27.4862 39.957 27.4054C39.8332 27.4863 39.7085 27.5651 39.585 27.6446ZM40.2539 27.2101C40.3695 27.1338 40.4858 27.058 40.6016 26.9806L40.6533 26.9454C40.5203 27.0347 40.3867 27.1223 40.2539 27.2101ZM45.9346 22.9308L46.6064 22.3566C46.6322 22.3343 46.6568 22.3106 46.6826 22.2882C46.4321 22.5054 46.1833 22.7202 45.9346 22.9308ZM48.4951 20.6749C48.6831 20.5037 48.8712 20.3301 49.0605 20.1554C48.8712 20.3301 48.6831 20.5037 48.4951 20.6749ZM67.9248 2.59289C67.8984 2.59775 67.872 2.60225 67.8457 2.60754C67.872 2.60224 67.8984 2.59775 67.9248 2.59289ZM68.2266 2.54504C68.207 2.54744 68.1875 2.5512 68.168 2.55382C68.2011 2.54938 68.2343 2.54493 68.2676 2.54113L68.2266 2.54504ZM35.2012 40.5665C35.389 40.4805 35.576 40.3934 35.7627 40.3058C35.576 40.3934 35.389 40.4805 35.2012 40.5665ZM35.2012 40.5665C35.0427 40.6391 34.8838 40.7109 34.7246 40.7823C34.8838 40.7109 35.0427 40.6391 35.2012 40.5665Z" fill="#5751FF"/>
<path fill-rule="evenodd" clip-rule="evenodd" d="M303.92 0.549805C308.291 0.549819 312.209 1.3145 315.633 2.89746C319.208 4.44132 321.998 6.89979 323.953 10.2402C325.917 13.5946 326.84 17.7083 326.84 22.4795C326.84 26.2296 326.136 29.9636 324.745 33.6719C323.353 37.3843 321.311 40.9205 318.639 44.2803L318.638 44.2793C316.049 47.6262 312.906 50.7652 309.221 53.6982C305.521 56.6427 301.309 59.3093 296.595 61.7041L296.585 61.71L296.574 61.7148C292.34 63.7982 287.784 65.6042 282.91 67.1377C283.191 68.1515 283.471 69.1504 283.752 70.1338C284.261 71.5933 284.735 73.0868 285.173 74.6143C285.684 76.0748 286.193 77.6053 286.702 79.2051C287.292 80.8285 287.917 82.6306 288.577 84.6104L288.583 84.627L288.588 84.6426C289.676 88.1239 290.722 91.1156 291.725 93.624L292.1 94.5225C292.968 96.5648 293.799 98.2809 294.589 99.6807C295.49 101.204 296.323 102.358 297.079 103.183C297.816 103.916 298.508 104.426 299.146 104.758C299.868 105.025 300.612 105.159 301.39 105.159C302.534 105.159 303.713 104.877 304.946 104.267C306.183 103.582 307.528 102.486 308.971 100.906L308.984 100.891L308.999 100.875C310.528 99.276 312.193 97.1919 313.991 94.6025L314.01 94.5762L314.03 94.5498C314.859 93.4455 316.087 92.9573 317.372 92.8486C318.834 92.648 320.211 93.0785 321.436 93.9238C322.207 94.4517 322.879 95.0077 323.396 95.5996C323.909 96.1857 324.35 96.8958 324.501 97.7275C324.752 99.1087 324.336 100.441 323.603 101.633L323.574 101.68L323.543 101.724C321.075 105.238 318.62 108.191 316.172 110.562C313.71 112.948 311.16 114.766 308.515 115.969L308.514 115.968C305.873 117.241 303.127 117.89 300.29 117.89C297.31 117.89 294.61 117.243 292.247 115.893C289.949 114.58 287.87 112.683 285.996 110.262L285.977 110.236L285.958 110.21C284.183 107.74 282.512 104.73 280.937 101.204L280.927 101.183L280.918 101.162C279.435 97.6021 277.883 93.4978 276.261 88.8535L276.256 88.8408L276.252 88.8291C275.519 86.6291 274.859 84.6487 274.272 82.8887L274.262 82.8564L274.252 82.8232C273.746 81.0886 273.242 79.5061 272.741 78.0742L272.736 78.0615L272.732 78.0488C272.216 76.5007 271.7 74.9158 271.185 73.2949L271.173 73.2598L271.163 73.2236C270.814 71.945 270.417 70.5698 269.973 69.0977C268.793 68.898 267.669 68.5819 266.604 68.1436L266.563 68.127L266.523 68.1084C265.056 67.4177 263.825 66.4788 262.894 65.2676L262.865 65.2314L262.84 65.1943C261.956 63.917 261.53 62.453 261.53 60.8691C261.53 58.637 262.436 56.7411 264.157 55.3066C265.861 53.8869 267.981 53.2393 270.37 53.2393C272.37 53.2393 274.207 53.6559 275.827 54.5469C275.833 54.5499 275.84 54.5526 275.846 54.5557C275.852 54.5591 275.858 54.563 275.864 54.5664C276.98 55.157 277.966 55.833 278.799 56.6055C282.422 55.3834 285.862 53.926 289.119 52.2324C292.771 50.2983 296.05 48.1935 298.962 45.9209C301.954 43.5693 304.499 41.1272 306.607 38.5977L306.61 38.5938C308.782 36.0022 310.4 33.3719 311.494 30.7061L311.502 30.6885L311.51 30.6699C312.664 28.0223 313.229 25.3694 313.229 22.6992C313.229 20.1917 312.753 18.4032 311.972 17.1758L311.955 17.1514L311.94 17.125C311.189 15.8527 310.135 14.9382 308.728 14.3516C307.231 13.7281 305.422 13.3896 303.26 13.3896C300.021 13.3897 296.633 14.1309 293.083 15.6621L293.069 15.668L293.055 15.6738C289.486 17.1431 285.924 19.2552 282.367 22.0293L282.366 22.0283C278.89 24.7968 275.538 28.1477 272.312 32.0898L272.303 32.1016C269.078 35.9709 266.096 40.2787 263.359 45.0293C260.702 49.7698 258.4 54.8021 256.455 60.127L239.413 113.012C238.993 114.434 238.131 115.575 236.847 116.324C235.566 117.071 233.909 117.34 232.09 117.34C230.344 117.34 228.725 117.072 227.493 116.288C226.747 115.813 226.185 115.112 225.948 114.206C225.725 113.351 225.838 112.485 226.082 111.703L226.088 111.682L252.454 30.75C252.172 30.988 251.889 31.2258 251.603 31.4609C249.525 33.1675 247.338 34.872 245.042 36.5752L245.034 36.5811C242.824 38.2015 240.469 39.8946 237.968 41.6602L237.929 41.6875C236.24 42.813 234.321 43.5343 232.475 42.875C230.927 42.3222 229.727 41.1149 228.794 39.5879C227.973 38.2685 227.505 36.849 227.634 35.3887L227.668 35.0947C227.921 33.2475 229.196 31.9035 230.822 30.9531C235.099 28.2702 239.043 25.5553 242.656 22.8096C246.338 19.9941 249.688 17.0761 252.707 14.0566C255.711 10.9793 258.313 7.80408 260.518 4.5332L260.539 4.50195C261.468 3.18634 262.449 2.09892 263.504 1.46582C264.67 0.766147 266.254 0.549805 267.95 0.549805C269.695 0.549841 271.346 0.795072 272.545 1.60156L272.546 1.60059C272.551 1.60399 272.556 1.60888 272.562 1.6123C272.578 1.62357 272.596 1.63305 272.612 1.64453L272.61 1.64648C273.338 2.13002 273.882 2.83855 274.081 3.75488C274.267 4.61183 274.111 5.46288 273.836 6.21973L270.267 17.376C271.386 16.2366 272.521 15.1461 273.672 14.1045L273.687 14.0908C276.714 11.416 279.788 9.12483 282.909 7.22461L283.534 6.84961C286.934 4.81047 290.322 3.24797 293.694 2.1748L293.705 2.1709L294.353 1.97559C297.587 1.02949 300.778 0.549805 303.92 0.549805Z" fill="#5751FF"/>
<path d="M100.79 107.935C96.5397 107.935 92.6864 107 89.2297 105.13C85.8297 103.203 83.138 100.597 81.1547 97.3099C79.1714 94.0232 78.1797 90.3399 78.1797 86.2599C78.1797 82.1799 79.1714 78.5249 81.1547 75.2949C83.138 72.0649 85.8297 69.5149 89.2297 67.6449C92.6297 65.7182 96.483 64.7549 100.79 64.7549C105.096 64.7549 108.95 65.6899 112.35 67.5599C115.75 69.4299 118.441 72.0082 120.425 75.2949C122.408 78.5249 123.4 82.1799 123.4 86.2599C123.4 90.3399 122.408 94.0232 120.425 97.3099C118.441 100.597 115.75 103.203 112.35 105.13C108.95 107 105.096 107.935 100.79 107.935ZM100.79 96.1199C102.66 96.1199 104.303 95.7232 105.72 94.9299C107.136 94.0799 108.213 92.9182 108.95 91.4449C109.743 89.9149 110.14 88.1866 110.14 86.2599C110.14 84.3332 109.743 82.6615 108.95 81.2449C108.156 79.7715 107.051 78.6382 105.635 77.8449C104.275 76.9949 102.66 76.5699 100.79 76.5699C98.9764 76.5699 97.3614 76.9949 95.9447 77.8449C94.528 78.6382 93.423 79.7715 92.6297 81.2449C91.8364 82.7182 91.4397 84.4182 91.4397 86.3449C91.4397 88.2149 91.8364 89.9149 92.6297 91.4449C93.423 92.9182 94.528 94.0799 95.9447 94.9299C97.3614 95.7232 98.9764 96.1199 100.79 96.1199Z" fill="url(#paint0_linear_47_23)"/>
<path d="M336.615 107.935C332.365 107.935 328.512 107 325.055 105.13C321.655 103.203 318.963 100.597 316.98 97.3099C314.997 94.0232 314.005 90.3399 314.005 86.2599C314.005 82.1799 314.997 78.5249 316.98 75.2949C318.963 72.0649 321.655 69.5149 325.055 67.6449C328.455 65.7182 332.308 64.7549 336.615 64.7549C340.922 64.7549 344.775 65.6899 348.175 67.5599C351.575 69.4299 354.267 72.0082 356.25 75.2949C358.233 78.5249 359.225 82.1799 359.225 86.2599C359.225 90.3399 358.233 94.0232 356.25 97.3099C354.267 100.597 351.575 103.203 348.175 105.13C344.775 107 340.922 107.935 336.615 107.935ZM336.615 96.1199C338.485 96.1199 340.128 95.7232 341.545 94.9299C342.962 94.0799 344.038 92.9182 344.775 91.4449C345.568 89.9149 345.965 88.1866 345.965 86.2599C345.965 84.3332 345.568 82.6615 344.775 81.2449C343.982 79.7715 342.877 78.6382 341.46 77.8449C340.1 76.9949 338.485 76.5699 336.615 76.5699C334.802 76.5699 333.187 76.9949 331.77 77.8449C330.353 78.6382 329.248 79.7715 328.455 81.2449C327.662 82.7182 327.265 84.4182 327.265 86.3449C327.265 88.2149 327.662 89.9149 328.455 91.4449C329.248 92.9182 330.353 94.0799 331.77 94.9299C333.187 95.7232 334.802 96.1199 336.615 96.1199Z" fill="url(#paint1_linear_47_23)"/>
<path d="M385.59 107.935C381.34 107.935 377.486 107 374.029 105.13C370.629 103.203 367.938 100.597 365.954 97.3099C363.971 94.0232 362.979 90.3399 362.979 86.2599C362.979 82.1799 363.971 78.5249 365.954 75.2949C367.938 72.0649 370.629 69.5149 374.029 67.6449C377.429 65.7182 381.283 64.7549 385.59 64.7549C389.896 64.7549 393.75 65.6899 397.15 67.5599C400.55 69.4299 403.241 72.0082 405.224 75.2949C407.208 78.5249 408.199 82.1799 408.199 86.2599C408.199 90.3399 407.208 94.0232 405.224 97.3099C403.241 100.597 400.55 103.203 397.15 105.13C393.75 107 389.896 107.935 385.59 107.935ZM385.59 96.1199C387.46 96.1199 389.103 95.7232 390.52 94.9299C391.936 94.0799 393.013 92.9182 393.749 91.4449C394.543 89.9149 394.939 88.1866 394.939 86.2599C394.939 84.3332 394.543 82.6615 393.749 81.2449C392.956 79.7715 391.851 78.6382 390.435 77.8449C389.075 76.9949 387.46 76.5699 385.59 76.5699C383.776 76.5699 382.161 76.9949 380.745 77.8449C379.328 78.6382 378.223 79.7715 377.43 81.2449C376.636 82.7182 376.24 84.4182 376.24 86.3449C376.24 88.2149 376.636 89.9149 377.43 91.4449C378.223 92.9182 379.328 94.0799 380.745 94.9299C382.161 95.7232 383.776 96.1199 385.59 96.1199Z" fill="url(#paint2_linear_47_23)"/>
<path d="M129.874 107V45.29H142.879V107H129.874Z" fill="#5751FF"/>
<path d="M152.037 107V45.29H165.042V107H152.037Z" fill="#5751FF"/>
<path d="M186.95 107.17L169.95 65.69H183.975L194.77 98.585H189.585L200.635 65.69H214.66L196.98 107.17H186.95ZM176.325 124.425L188.735 97.65L196.98 107.17L189.67 124.425H176.325Z" fill="#5751FF"/>
<path d="M414.674 107V65.6898H427.679V107H414.674ZM441.109 107V82.8598C441.109 80.7632 440.457 79.1482 439.154 78.0148C437.907 76.8248 436.349 76.2298 434.479 76.2298C433.175 76.2298 432.014 76.5132 430.994 77.0798C429.974 77.5898 429.152 78.3265 428.529 79.2898C427.962 80.2532 427.679 81.4432 427.679 82.8598L422.664 80.6498C422.664 77.3632 423.372 74.5582 424.789 72.2348C426.205 69.8548 428.132 68.0415 430.569 66.7948C433.005 65.4915 435.754 64.8398 438.814 64.8398C441.704 64.8398 444.282 65.4915 446.549 66.7948C448.872 68.0982 450.714 69.9115 452.074 72.2348C453.434 74.5582 454.114 77.3348 454.114 80.5648V107H441.109ZM467.544 107V82.8598C467.544 80.7632 466.892 79.1482 465.589 78.0148C464.342 76.8248 462.784 76.2298 460.914 76.2298C459.61 76.2298 458.449 76.5132 457.429 77.0798C456.409 77.5898 455.587 78.3265 454.964 79.2898C454.397 80.2532 454.114 81.4432 454.114 82.8598L446.634 81.8398C446.747 78.3265 447.569 75.3232 449.099 72.8298C450.685 70.2798 452.754 68.3248 455.304 66.9648C457.91 65.5482 460.829 64.8398 464.059 64.8398C467.232 64.8398 470.037 65.5198 472.474 66.8798C474.967 68.1832 476.922 70.0815 478.339 72.5748C479.812 75.0115 480.549 77.9582 480.549 81.4148V107H467.544Z" fill="#5751FF"/>
<defs>
<linearGradient id="paint0_linear_47_23" x1="238" y1="46.5" x2="243" y2="117.5" gradientUnits="userSpaceOnUse">
<stop offset="0.390322" stop-color="#E84C6E"/>
<stop offset="0.578057" stop-color="#F26430"/>
</linearGradient>
<linearGradient id="paint1_linear_47_23" x1="238" y1="46.5" x2="243" y2="117.5" gradientUnits="userSpaceOnUse">
<stop offset="0.390322" stop-color="#E84C6E"/>
<stop offset="0.578057" stop-color="#F26430"/>
</linearGradient>
<linearGradient id="paint2_linear_47_23" x1="238" y1="46.5" x2="243" y2="117.5" gradientUnits="userSpaceOnUse">
<stop offset="0.390322" stop-color="#E84C6E"/>
<stop offset="0.578057" stop-color="#F26430"/>
</linearGradient>
</defs>
</svg>
