<svg width="1932" height="400" viewBox="0 0 1932 400" fill="none" xmlns="http://www.w3.org/2000/svg">
<g style="mix-blend-mode:darken">
<path d="M1101 41.018C1352.5 41.018 1379 275.018 1597 102.518C1699.15 21.6857 1832.99 20.1587 1932 53.7245V399.019H0V12.792C120.958 -33.3275 234.629 54.4003 403 130.518C643 239.018 849.5 41.018 1101 41.018Z" fill="url(#paint0_linear_275_92)"/>
<path d="M1101 41.018C1352.5 41.018 1379 275.018 1597 102.518C1699.15 21.6857 1832.99 20.1587 1932 53.7245V399.019H0V12.792C120.958 -33.3275 234.629 54.4003 403 130.518C643 239.018 849.5 41.018 1101 41.018Z" fill="url(#paint1_radial_275_92)"/>
<path d="M1101 41.018C1352.5 41.018 1379 275.018 1597 102.518C1699.15 21.6857 1832.99 20.1587 1932 53.7245V399.019H0V12.792C120.958 -33.3275 234.629 54.4003 403 130.518C643 239.018 849.5 41.018 1101 41.018Z" fill="url(#paint2_linear_275_92)"/>
<path d="M1101 41.018C1352.5 41.018 1379 275.018 1597 102.518C1699.15 21.6857 1832.99 20.1587 1932 53.7245V399.019H0V12.792C120.958 -33.3275 234.629 54.4003 403 130.518C643 239.018 849.5 41.018 1101 41.018Z" fill="url(#paint3_linear_275_92)"/>
</g>
<defs>
<linearGradient id="paint0_linear_275_92" x1="758.499" y1="-198.481" x2="921.244" y2="593.482" gradientUnits="userSpaceOnUse">
<stop stop-color="white"/>
<stop offset="0.404812" stop-color="#9ED0FF" stop-opacity="0.5"/>
<stop offset="1" stop-color="white"/>
</linearGradient>
<radialGradient id="paint1_radial_275_92" cx="0" cy="0" r="1" gradientUnits="userSpaceOnUse" gradientTransform="translate(1407 88.0186) rotate(-176.952) scale(855.71 361.099)">
<stop stop-color="white"/>
<stop offset="1" stop-color="white" stop-opacity="0"/>
</radialGradient>
<linearGradient id="paint2_linear_275_92" x1="1010" y1="133.019" x2="610.159" y2="631.393" gradientUnits="userSpaceOnUse">
<stop stop-color="white" stop-opacity="0"/>
<stop offset="1" stop-color="white"/>
</linearGradient>
<linearGradient id="paint3_linear_275_92" x1="965.25" y1="441.019" x2="965.5" y2="37.5186" gradientUnits="userSpaceOnUse">
<stop stop-color="white" stop-opacity="0"/>
<stop offset="0.721875" stop-color="white" stop-opacity="0.5"/>
</linearGradient>
</defs>
</svg>
